<svg width="512" height="512" viewBox="0 0 512 512" fill="none" xmlns="http://www.w3.org/2000/svg">
    <circle cx="256" cy="256" r="256" fill="#D15C22"/>
    <path fill-rule="evenodd" clip-rule="evenodd"
          d="M256 34C265.941 34 274 42.0589 274 52V124C274 124.505 273.979 125.005 273.938 125.5C273.979 125.995 274 126.495 274 127C274 136.941 265.941 145 256 145C229.911 145 209 165.95 209 191.5C209 205.61 215.215 215.05 224.924 222.464C234.937 230.11 248.224 235.116 260.872 238.672C281.942 244.596 301.384 252.765 315.689 265.833C330.786 279.624 339 297.812 339 320.5C339 366.194 301.708 403 256 403C210.292 403 173 366.194 173 320.5C173 310.559 181.059 302.5 191 302.5C200.941 302.5 209 310.559 209 320.5C209 346.05 229.911 367 256 367C282.089 367 303 346.05 303 320.5C303 307.566 298.779 299.145 291.409 292.412C283.247 284.957 270.189 278.687 251.128 273.328C237.117 269.389 218.561 262.9 203.076 251.076C186.384 238.331 173 219.062 173 191.5C173 151.981 200.893 119.111 238 110.948V52C238 42.0589 246.059 34 256 34ZM256 418C265.941 418 274 426.059 274 436V460C274 469.941 265.941 478 256 478C246.059 478 238 469.941 238 460V436C238 426.059 246.059 418 256 418ZM321.066 140.275C314.867 132.504 303.541 131.229 295.77 137.429C287.998 143.628 286.724 154.953 292.923 162.725C299.249 170.655 303 180.626 303 191.5C303 201.441 311.059 209.5 321 209.5C330.941 209.5 339 201.441 339 191.5C339 172.154 332.279 154.332 321.066 140.275Z"
          fill="white"/>
</svg>
