<svg width="256" height="256" viewBox="0 0 256 256" fill="none" xmlns="http://www.w3.org/2000/svg">
    <circle cx="128" cy="128" r="128" fill="#50AF95"/>
    <path fill-rule="evenodd" clip-rule="evenodd"
          d="M143.331 136.414C142.458 136.48 137.949 136.749 127.891 136.749C119.891 136.749 114.211 136.509 112.218 136.414C81.3019 135.054 58.2255 129.672 58.2255 123.229C58.2255 116.785 81.3019 111.411 112.218 110.029V131.054C114.24 131.2 120.029 131.541 128.029 131.541C137.629 131.541 142.436 131.141 143.302 131.061V110.043C174.153 111.418 197.178 116.8 197.178 123.229C197.178 129.658 174.16 135.04 143.302 136.407L143.331 136.414ZM143.331 107.869V89.0542H186.386V60.3633H69.1637V89.0542H112.211V107.861C77.2219 109.469 50.9092 116.4 50.9092 124.705C50.9092 133.011 77.2219 139.934 112.211 141.549V201.84H143.324V141.527C178.233 139.92 204.502 132.996 204.502 124.698C204.502 116.4 178.255 109.476 143.324 107.861L143.331 107.869Z"
          fill="white"/>
</svg>
